<svg width="423" height="351" viewBox="0 0 423 351" fill="none" xmlns="http://www.w3.org/2000/svg">
<g clip-path="url(#clip0)" filter="url(#filter0_d)">
<path d="M60.4327 25.6685L28.4732 272.347L277.893 304.655C277.893 304.655 345.174 273.972 368.438 260.538L394.351 67.1439L60.4327 25.6685Z" fill="#F4F4F4"/>
</g>
<g filter="url(#filter1_d)">
<path d="M330.118 230.253C301.824 270.713 276.867 305.321 276.867 305.321C276.867 305.321 345.401 273.815 369.426 259.686C369.431 259.664 347.227 263.085 330.118 230.253Z" fill="url(#paint0_linear)"/>
</g>
<g filter="url(#filter2_d)">
<path d="M54.4158 54.152C48.5008 52.8106 45.111 49.3286 45.111 49.3286L37.8965 77.6469C37.8965 77.6469 42.5391 76.2114 48.3748 77.8636C54.2105 79.5159 57.9541 80.3041 56.6967 86.5447L65.8733 50.525C64.0092 56.5961 60.3307 55.4934 54.4158 54.152Z" fill="url(#paint1_linear)"/>
<g opacity="0.7">
<path opacity="0.7" d="M54.5887 80.0487C53.4699 79.1015 51.9984 78.4708 50.5869 77.9607C49.3172 77.4868 48.0264 76.9773 46.7172 76.6588C46.1495 76.5142 45.4112 76.4465 45.0045 75.9667C44.6685 75.5651 44.9832 74.923 45.2154 74.5457C46.0189 73.2306 46.826 71.9013 47.4559 70.4967C48.8944 67.342 49.812 63.8589 49.8844 60.3711C49.9074 58.8571 49.5191 57.1782 49.6876 55.6862C49.7647 54.9685 49.947 54.6086 50.6299 54.301C51.3981 53.955 52.3634 54.1408 53.0909 54.2509C55.0606 54.5871 57.8279 55.2922 58.3994 55.3625C61.5904 55.7692 63.3929 55.16 64.1182 53.855C62.0121 56.012 58.8476 55.1456 54.4336 54.1415C48.5187 52.8001 45.1289 49.3181 45.1289 49.3181L37.9108 77.6506C37.9108 77.6506 42.5534 76.215 48.3891 77.8673C50.9292 78.5746 53.0827 79.1383 54.5887 80.0487Z" fill="url(#paint2_linear)"/>
</g>
<g opacity="0.7">
<path opacity="0.7" d="M59.8609 75.2522C59.8609 75.2522 55.3741 74.7712 53.6033 74.4254C51.8325 74.0796 51.1088 73.8952 51.5264 72.256C51.944 70.6168 54.2192 61.6861 54.5072 60.5556C54.7952 59.4252 54.9248 58.9165 57.4825 59.6734C60.0402 60.4303 63.3038 61.3822 63.3038 61.3822L59.8609 75.2522Z" fill="url(#paint3_linear)"/>
</g>
<path opacity="0.8" d="M54.4931 60.552C54.2051 61.6825 51.9298 70.6132 51.5122 72.2524C51.0946 73.8916 51.8184 74.076 53.5891 74.4218C55.3599 74.7676 59.8467 75.2485 59.8467 75.2485C59.8467 75.2485 56.384 74.3664 54.8195 73.9226C53.3828 73.5115 52.7507 73.5009 53.1287 72.0172C53.5067 70.5334 55.5552 62.493 55.8144 61.4755C56.0736 60.4581 56.1202 60.3345 58.2959 60.633C60.3403 60.9131 63.2718 61.3891 63.2718 61.3891C63.2718 61.3891 60.0046 60.4514 57.4505 59.6803C54.9107 58.9128 54.7811 59.4216 54.4931 60.552Z" fill="url(#paint4_linear)"/>
<path d="M15.5901 56.8858C13.0628 66.8057 18.4366 76.7371 27.6043 79.0727C36.7721 81.4084 46.2427 75.2588 48.77 65.3389C51.2972 55.419 45.9235 45.4876 36.7557 43.152C27.588 40.8164 18.1173 46.9659 15.5901 56.8858ZM39.6022 63.0033C38.5654 67.073 34.6754 69.5881 30.9288 68.6336C27.1822 67.6791 24.9699 63.6093 26.0067 59.5396C27.0435 55.4699 30.9335 52.9547 34.6801 53.9092C38.4267 54.8637 40.639 58.9336 39.6022 63.0033Z" fill="url(#paint5_radial)"/>
<mask id="mask0" mask-type="alpha" maskUnits="userSpaceOnUse" x="11" y="38" width="43" height="46">
<path d="M15.5901 56.8858C13.0628 66.8057 18.4366 76.7371 27.6043 79.0727C36.7721 81.4084 46.2427 75.2588 48.77 65.3389C51.2972 55.419 45.9235 45.4876 36.7557 43.152C27.588 40.8164 18.1173 46.9659 15.5901 56.8858ZM39.6022 63.0033C38.5654 67.073 34.6754 69.5881 30.9288 68.6336C27.1822 67.6791 24.9699 63.6093 26.0067 59.5396C27.0435 55.4699 30.9335 52.9547 34.6801 53.9092C38.4267 54.8637 40.639 58.9336 39.6022 63.0033Z" fill="url(#paint6_linear)"/>
</mask>
<g mask="url(#mask0)">
<path d="M15.5901 56.8858C13.0628 66.8057 18.4366 76.7371 27.6043 79.0727C36.7721 81.4084 46.2427 75.2588 48.77 65.3389C51.2972 55.419 45.9235 45.4876 36.7557 43.152C27.588 40.8164 18.1173 46.9659 15.5901 56.8858ZM39.6022 63.0033C38.5654 67.073 34.6754 69.5881 30.9288 68.6336C27.1822 67.6791 24.9699 63.6093 26.0067 59.5396C27.0435 55.4699 30.9335 52.9547 34.6801 53.9092C38.4267 54.8637 40.639 58.9336 39.6022 63.0033Z" fill="url(#paint7_linear)"/>
<path d="M94.5456 33.8431C94.5456 33.8431 82.5861 31.669 79.334 31.5026C76.0818 31.3362 70.83 31.3073 68.6879 39.7152C66.8267 47.0209 55.8573 90.0778 53.9961 97.3834C51.854 105.791 56.4901 108.297 59.4148 109.689C62.3538 111.085 73.8956 114.898 73.8956 114.898L94.5456 33.8431Z" fill="url(#paint8_linear)"/>
<mask id="mask1" mask-type="alpha" maskUnits="userSpaceOnUse" x="12" y="41" width="23" height="37">
<path d="M24.4029 76.5718C19.6438 73.7191 15.5651 68.1956 15.8269 60.2869C16.0887 52.3781 21.9136 45.8866 28.4401 43.9378C28.4401 43.9378 22.4775 47.1137 22.3862 50.9127C22.2949 54.7116 27.8459 51.4308 25.5082 55.8613C23.1704 60.2918 23.6934 65.12 26.6818 67.6269C29.6701 70.1338 28.0541 71.257 26.6358 71.6631C25.2175 72.0693 22.7962 72.9722 24.0701 75.2681C25.3583 77.5676 24.4029 76.5718 24.4029 76.5718Z" fill="url(#paint9_linear)"/>
</mask>
<g mask="url(#mask1)">
<path d="M24.4029 76.5718C19.6438 73.7191 15.5651 68.1956 15.8269 60.2869C16.0887 52.3781 21.9136 45.8866 28.4401 43.9378C28.4401 43.9378 22.4775 47.1137 22.3862 50.9127C22.2949 54.7116 27.8459 51.4308 25.5082 55.8613C23.1704 60.2918 23.6934 65.12 26.6818 67.6269C29.6701 70.1338 28.0541 71.257 26.6358 71.6631C25.2175 72.0693 22.7962 72.9722 24.0701 75.2681C25.3583 77.5676 24.4029 76.5718 24.4029 76.5718Z" fill="url(#paint10_linear)"/>
</g>
<g opacity="0.5">
<mask id="mask2" mask-type="alpha" maskUnits="userSpaceOnUse" x="31" y="46" width="22" height="36">
<g opacity="0.5">
<g opacity="0.5">
<path opacity="0.5" d="M42.4556 47.1172C46.6973 50.6958 49.8294 56.7907 48.2897 64.5545C46.7501 72.3183 39.9451 77.7926 33.1809 78.6576C33.1809 78.6576 39.5839 76.4817 40.2928 72.7498C41.0018 69.0179 34.9782 71.3658 38.0069 67.3671C41.0356 63.3685 41.2903 58.5127 38.7616 55.5661C36.2186 52.6159 37.9936 51.7589 39.4572 51.59C40.9208 51.4212 43.4686 50.9116 42.5717 48.4409C41.6748 45.9702 42.4556 47.1172 42.4556 47.1172Z" fill="url(#paint11_linear)"/>
</g>
</g>
</mask>
<g mask="url(#mask2)">
<path opacity="0.5" d="M42.4556 47.1172C46.6973 50.6958 49.8294 56.7907 48.2897 64.5545C46.7501 72.3183 39.9451 77.7926 33.1809 78.6576C33.1809 78.6576 39.5839 76.4817 40.2928 72.7498C41.0018 69.0179 34.9782 71.3658 38.0069 67.3671C41.0356 63.3685 41.2903 58.5127 38.7616 55.5661C36.2186 52.6159 37.9936 51.7589 39.4572 51.59C40.9208 51.4212 43.4686 50.9116 42.5717 48.4409C41.6748 45.9702 42.4556 47.1172 42.4556 47.1172Z" fill="url(#paint12_linear)"/>
</g>
</g>
</g>
<mask id="mask3" mask-type="alpha" maskUnits="userSpaceOnUse" x="13" y="40" width="31" height="36">
<path d="M21.1272 70.9219C19.7916 68.9865 16.2445 58.6477 22.0781 51.707C27.9081 44.7804 34.8592 46.3256 37.9191 47.6619C40.9826 48.9841 44.9791 50.5591 41.9363 47.3762C38.9076 44.1969 30.3259 40.8067 22.3301 47.633C14.338 54.4451 14.5246 67.1782 20.5179 71.5341C21.9241 72.5394 21.7667 71.8523 21.1272 70.9219Z" fill="url(#paint13_linear)"/>
</mask>
<g mask="url(#mask3)">
<path d="M21.1272 70.9219C19.7916 68.9865 16.2445 58.6477 22.0781 51.707C27.9081 44.7804 34.8592 46.3256 37.9191 47.6619C40.9826 48.9841 44.9791 50.5591 41.9363 47.3762C38.9076 44.1969 30.3259 40.8067 22.3301 47.633C14.338 54.4451 14.5246 67.1782 20.5179 71.5341C21.9241 72.5394 21.7667 71.8523 21.1272 70.9219Z" fill="url(#paint14_linear)"/>
</g>
<mask id="mask4" mask-type="alpha" maskUnits="userSpaceOnUse" x="17" y="55" width="26" height="22">
<path d="M20.045 62.4751C20.045 62.4751 21.5964 71.8089 29.5855 73.0166C37.5853 74.2421 41.3018 67.4843 42.1955 60.6544C42.1955 60.6544 41.3038 74.0608 31.3534 74.2043C20.4014 74.3636 19.625 63.7676 20.045 62.4751Z" fill="url(#paint15_radial)"/>
</mask>
<g mask="url(#mask4)">
<path opacity="0.6" d="M20.045 62.4751C20.045 62.4751 21.5964 71.8089 29.5855 73.0166C37.5853 74.2421 41.3018 67.4843 42.1955 60.6544C42.1955 60.6544 41.3038 74.0608 31.3534 74.2043C20.4014 74.3636 19.625 63.7676 20.045 62.4751Z" fill="url(#paint16_radial)"/>
<path opacity="0.7" d="M25.1469 59.6517C24.0597 63.9192 26.3388 68.2017 30.2273 69.1923C32.796 69.8467 35.4412 68.8955 37.2519 66.9491C35.5384 68.5139 33.2136 69.2158 30.9288 68.6337C27.1822 67.6792 24.9698 63.6094 26.0066 59.5397C27.0435 55.47 30.9335 52.9548 34.68 53.9093C34.8787 53.9599 35.0596 54.021 35.2547 54.0858C34.9143 53.9389 34.5561 53.8025 34.1871 53.7085C30.2845 52.7142 26.2377 55.37 25.1469 59.6517Z" fill="url(#paint17_linear)"/>
</g>
</g>
<g clip-path="url(#clip1)" filter="url(#filter3_d)">
<path d="M97.3776 29.2473C97.3776 29.2473 83.6987 26.7613 79.9788 26.5715C76.2793 26.3696 70.2559 26.3334 67.8043 35.9565C65.6741 44.318 53.1193 93.5978 50.9891 101.959C48.5333 111.599 53.8398 114.449 57.1849 116.042C60.5422 117.655 73.7432 122.017 73.7432 122.017L97.3776 29.2473Z" fill="url(#paint18_linear)"/>
</g>
<defs>
<filter id="filter0_d" x="0.401367" y="-0.397095" width="421.949" height="346.85" filterUnits="userSpaceOnUse" color-interpolation-filters="sRGB">
<feFlood flood-opacity="0" result="BackgroundImageFix"/>
<feColorMatrix in="SourceAlpha" type="matrix" values="0 0 0 0 0 0 0 0 0 0 0 0 0 0 0 0 0 0 127 0"/>
<feOffset dy="3"/>
<feGaussianBlur stdDeviation="14"/>
<feColorMatrix type="matrix" values="0 0 0 0 0 0 0 0 0 0 0 0 0 0 0 0 0 0 0.35 0"/>
<feBlend mode="normal" in2="BackgroundImageFix" result="effect1_dropShadow"/>
<feBlend mode="normal" in="SourceGraphic" in2="effect1_dropShadow" result="shape"/>
</filter>
<filter id="filter1_d" x="245.867" y="189.716" width="158.817" height="161.284" filterUnits="userSpaceOnUse" color-interpolation-filters="sRGB">
<feFlood flood-opacity="0" result="BackgroundImageFix"/>
<feColorMatrix in="SourceAlpha" type="matrix" values="0 0 0 0 0 0 0 0 0 0 0 0 0 0 0 0 0 0 127 0"/>
<feOffset dy="-2"/>
<feGaussianBlur stdDeviation="15.5"/>
<feColorMatrix type="matrix" values="0 0 0 0 0 0 0 0 0 0 0 0 0 0 0 0 0 0 0.17 0"/>
<feBlend mode="normal" in2="BackgroundImageFix" result="effect1_dropShadow"/>
<feBlend mode="normal" in="SourceGraphic" in2="effect1_dropShadow" result="shape"/>
</filter>
<filter id="filter2_d" x="5.0144" y="37.9254" width="66.8589" height="59.6193" filterUnits="userSpaceOnUse" color-interpolation-filters="sRGB">
<feFlood flood-opacity="0" result="BackgroundImageFix"/>
<feColorMatrix in="SourceAlpha" type="matrix" values="0 0 0 0 0 0 0 0 0 0 0 0 0 0 0 0 0 0 127 0"/>
<feOffset dy="5"/>
<feGaussianBlur stdDeviation="3"/>
<feColorMatrix type="matrix" values="0 0 0 0 0 0 0 0 0 0 0 0 0 0 0 0 0 0 0.4 0"/>
<feBlend mode="normal" in2="BackgroundImageFix" result="effect1_dropShadow"/>
<feBlend mode="normal" in="SourceGraphic" in2="effect1_dropShadow" result="shape"/>
</filter>
<filter id="filter3_d" x="41.5774" y="21.5812" width="61.8003" height="111.436" filterUnits="userSpaceOnUse" color-interpolation-filters="sRGB">
<feFlood flood-opacity="0" result="BackgroundImageFix"/>
<feColorMatrix in="SourceAlpha" type="matrix" values="0 0 0 0 0 0 0 0 0 0 0 0 0 0 0 0 0 0 127 0"/>
<feOffset dy="5"/>
<feGaussianBlur stdDeviation="3"/>
<feColorMatrix type="matrix" values="0 0 0 0 0 0 0 0 0 0 0 0 0 0 0 0 0 0 0.4 0"/>
<feBlend mode="normal" in2="BackgroundImageFix" result="effect1_dropShadow"/>
<feBlend mode="normal" in="SourceGraphic" in2="effect1_dropShadow" result="shape"/>
</filter>
<linearGradient id="paint0_linear" x1="335.646" y1="302.416" x2="272.735" y2="233.15" gradientUnits="userSpaceOnUse">
<stop stop-color="#CDCDCD"/>
<stop offset="0.5598" stop-color="white"/>
<stop offset="0.9704" stop-color="#D6D6D6"/>
</linearGradient>
<linearGradient id="paint1_linear" x1="42.8996" y1="63.8402" x2="66.8954" y2="69.9535" gradientUnits="userSpaceOnUse">
<stop offset="0.2147" stop-color="#929290"/>
<stop offset="0.3865" stop-color="#CBCCCA"/>
<stop offset="0.4256" stop-color="#C6C6C5"/>
<stop offset="0.4294" stop-color="#C5C5C4"/>
<stop offset="0.5196" stop-color="#CACAC9"/>
<stop offset="0.5554" stop-color="#C3C3C2"/>
<stop offset="0.6089" stop-color="#AFAFAD"/>
<stop offset="0.6732" stop-color="#8F8F8C"/>
<stop offset="0.7129" stop-color="#787774"/>
<stop offset="0.7162" stop-color="#6B6B68"/>
<stop offset="0.7235" stop-color="#555655"/>
<stop offset="0.732" stop-color="#444646"/>
<stop offset="0.7426" stop-color="#393B3C"/>
<stop offset="0.7575" stop-color="#323536"/>
<stop offset="0.7988" stop-color="#303334"/>
</linearGradient>
<linearGradient id="paint2_linear" x1="42.9354" y1="63.6998" x2="66.9309" y2="69.813" gradientUnits="userSpaceOnUse">
<stop stop-color="#929290"/>
<stop offset="0.1306" stop-color="#CBCCCA"/>
<stop offset="0.2794" stop-color="#C6C6C5"/>
<stop offset="0.294" stop-color="#C5C5C4"/>
<stop offset="0.42" stop-color="#787774"/>
<stop offset="0.5545" stop-color="#4E4B49"/>
<stop offset="0.5684" stop-color="#4A4846"/>
<stop offset="0.672" stop-color="#303334"/>
</linearGradient>
<linearGradient id="paint3_linear" x1="62.8391" y1="68.92" x2="50.573" y2="65.795" gradientUnits="userSpaceOnUse">
<stop stop-color="#929290"/>
<stop offset="0.1306" stop-color="#CBCCCA"/>
<stop offset="0.2794" stop-color="#C6C6C5"/>
<stop offset="0.294" stop-color="#C5C5C4"/>
<stop offset="0.42" stop-color="#787774"/>
<stop offset="0.5545" stop-color="#4E4B49"/>
<stop offset="0.5684" stop-color="#4A4846"/>
<stop offset="0.672" stop-color="#303334"/>
</linearGradient>
<linearGradient id="paint4_linear" x1="61.6538" y1="68.618" x2="49.3879" y2="65.4931" gradientUnits="userSpaceOnUse">
<stop stop-color="#929290"/>
<stop offset="0.1306" stop-color="#CBCCCA"/>
<stop offset="0.2168" stop-color="#C6C6C5"/>
<stop offset="0.2252" stop-color="#C5C5C4"/>
<stop offset="0.3444" stop-color="#787774"/>
<stop offset="0.5545" stop-color="#4E4B49"/>
<stop offset="0.5684" stop-color="#4A4846"/>
<stop offset="0.672" stop-color="#303334"/>
</linearGradient>
<radialGradient id="paint5_radial" cx="0" cy="0" r="1" gradientUnits="userSpaceOnUse" gradientTransform="translate(29.8631 60.7373) rotate(-75.7071) scale(19.325 19.408)">
<stop stop-color="#929290"/>
<stop offset="0.1306" stop-color="#CBCCCA"/>
<stop offset="0.2395" stop-color="#C6C6C5"/>
<stop offset="0.2502" stop-color="#C5C5C4"/>
<stop offset="0.3723" stop-color="#C9CAC8"/>
<stop offset="0.421" stop-color="#C3C4C2"/>
<stop offset="0.4874" stop-color="#B1B2B0"/>
<stop offset="0.5641" stop-color="#959694"/>
<stop offset="0.6479" stop-color="#6D6E6C"/>
<stop offset="0.6701" stop-color="#616260"/>
<stop offset="0.6853" stop-color="#5C5D5C"/>
<stop offset="0.7031" stop-color="#4E504F"/>
<stop offset="0.7221" stop-color="#37393A"/>
<stop offset="0.7265" stop-color="#303334"/>
<stop offset="0.8151" stop-color="#303334"/>
<stop offset="0.8297" stop-color="#303334"/>
<stop offset="0.833" stop-color="#373A3B"/>
<stop offset="0.8378" stop-color="#4B4D4E"/>
<stop offset="0.8436" stop-color="#6B6D6D"/>
<stop offset="0.8501" stop-color="#979897"/>
<stop offset="0.8562" stop-color="#C8C9C7"/>
<stop offset="0.8899" stop-color="#C6C7C5"/>
<stop offset="0.9021" stop-color="#C0C0BE"/>
<stop offset="0.9107" stop-color="#B4B5B3"/>
<stop offset="0.9177" stop-color="#A4A4A2"/>
<stop offset="0.9237" stop-color="#8E8E8C"/>
<stop offset="0.929" stop-color="#747270"/>
<stop offset="0.9337" stop-color="#565351"/>
<stop offset="0.9347" stop-color="#4E4B49"/>
</radialGradient>
<linearGradient id="paint6_linear" x1="15.2817" y1="56.8041" x2="47.8458" y2="65.1003" gradientUnits="userSpaceOnUse">
<stop stop-color="white"/>
<stop offset="0.1228" stop-color="white"/>
<stop offset="0.5157" stop-color="white"/>
<stop offset="0.5618" stop-color="#EDEDED"/>
<stop offset="0.6549" stop-color="#BCBCBC"/>
<stop offset="0.7865" stop-color="#6F6F6F"/>
<stop offset="0.9504" stop-color="#060606"/>
<stop offset="0.9589"/>
</linearGradient>
<linearGradient id="paint7_linear" x1="15.2817" y1="56.8041" x2="47.8458" y2="65.1003" gradientUnits="userSpaceOnUse">
<stop stop-color="#B1B1AF"/>
<stop offset="0.1228" stop-color="#868684"/>
<stop offset="0.5157" stop-color="#80817F"/>
<stop offset="0.6153" stop-color="#929391"/>
<stop offset="0.8149" stop-color="#C2C3C1"/>
<stop offset="0.9589" stop-color="#E8E9E7"/>
</linearGradient>
<linearGradient id="paint8_linear" x1="84.4282" y1="74.4202" x2="61.5513" y2="68.592" gradientUnits="userSpaceOnUse">
<stop stop-color="#929290"/>
<stop offset="0.1306" stop-color="#CBCCCA"/>
<stop offset="0.2168" stop-color="#C6C6C5"/>
<stop offset="0.2252" stop-color="#C5C5C4"/>
<stop offset="0.4414" stop-color="#787774"/>
<stop offset="0.5766" stop-color="#303334"/>
<stop offset="0.6397" stop-color="#323536"/>
<stop offset="0.6625" stop-color="#393B3C"/>
<stop offset="0.6787" stop-color="#444748"/>
<stop offset="0.6918" stop-color="#555858"/>
<stop offset="0.703" stop-color="#6B6D6D"/>
<stop offset="0.713" stop-color="#878888"/>
<stop offset="0.7218" stop-color="#A6A7A6"/>
<stop offset="0.7297" stop-color="#CACAC9"/>
<stop offset="0.8018" stop-color="#F8F8F8"/>
<stop offset="0.8489" stop-color="#F6F6F6"/>
<stop offset="0.8658" stop-color="#F0EFEF"/>
<stop offset="0.8779" stop-color="#E4E4E4"/>
<stop offset="0.8877" stop-color="#D4D3D3"/>
<stop offset="0.8961" stop-color="#BEBDBD"/>
<stop offset="0.9035" stop-color="#A4A2A1"/>
<stop offset="0.9102" stop-color="#848281"/>
<stop offset="0.9161" stop-color="#615E5D"/>
<stop offset="0.9189" stop-color="#4E4B49"/>
</linearGradient>
<linearGradient id="paint9_linear" x1="15.2687" y1="60.7777" x2="28.0071" y2="60.2786" gradientUnits="userSpaceOnUse">
<stop stop-color="white"/>
<stop offset="0.1228" stop-color="white"/>
<stop offset="0.2339" stop-color="white"/>
<stop offset="0.2921" stop-color="#DBDBDB"/>
<stop offset="0.3941" stop-color="#A2A2A2"/>
<stop offset="0.4963" stop-color="#707070"/>
<stop offset="0.5965" stop-color="#484848"/>
<stop offset="0.6942" stop-color="#282828"/>
<stop offset="0.7886" stop-color="#121212"/>
<stop offset="0.8785" stop-color="#050505"/>
<stop offset="0.9589"/>
</linearGradient>
<linearGradient id="paint10_linear" x1="15.2687" y1="60.7777" x2="28.0071" y2="60.2786" gradientUnits="userSpaceOnUse">
<stop stop-color="#929290"/>
<stop offset="0.1228" stop-color="#676765"/>
<stop offset="0.2339" stop-color="#616260"/>
<stop offset="0.3687" stop-color="#828381"/>
<stop offset="0.5268" stop-color="#A1A2A0"/>
<stop offset="0.6809" stop-color="#B7B8B6"/>
<stop offset="0.8276" stop-color="#C4C5C3"/>
<stop offset="0.9589" stop-color="#C9CAC8"/>
</linearGradient>
<linearGradient id="paint11_linear" x1="48.913" y1="64.1587" x2="36.2569" y2="62.588" gradientUnits="userSpaceOnUse">
<stop stop-color="white"/>
<stop offset="0.2577" stop-color="white"/>
<stop offset="0.5575" stop-color="white"/>
<stop offset="0.5919" stop-color="#F4F4F4"/>
<stop offset="0.6519" stop-color="#D8D8D8"/>
<stop offset="0.7301" stop-color="#A9A9A9"/>
<stop offset="0.8238" stop-color="#696969"/>
<stop offset="0.9293" stop-color="#181818"/>
<stop offset="0.9589"/>
</linearGradient>
<linearGradient id="paint12_linear" x1="48.913" y1="64.1587" x2="36.2569" y2="62.588" gradientUnits="userSpaceOnUse">
<stop stop-color="#929290"/>
<stop offset="0.2577" stop-color="#676765"/>
<stop offset="0.5575" stop-color="#616260"/>
<stop offset="0.6263" stop-color="#6C6D6B"/>
<stop offset="0.7458" stop-color="#888987"/>
<stop offset="0.9009" stop-color="#B6B7B5"/>
<stop offset="0.9589" stop-color="#C9CAC8"/>
</linearGradient>
<linearGradient id="paint13_linear" x1="21.6557" y1="47.24" x2="31.7402" y2="60.464" gradientUnits="userSpaceOnUse">
<stop stop-color="white"/>
<stop offset="0.2577" stop-color="white"/>
<stop offset="0.5575" stop-color="white"/>
<stop offset="0.5919" stop-color="#F4F4F4"/>
<stop offset="0.6519" stop-color="#D8D8D8"/>
<stop offset="0.7301" stop-color="#A9A9A9"/>
<stop offset="0.8238" stop-color="#696969"/>
<stop offset="0.9293" stop-color="#181818"/>
<stop offset="0.9589"/>
</linearGradient>
<linearGradient id="paint14_linear" x1="21.6557" y1="47.24" x2="31.7402" y2="60.464" gradientUnits="userSpaceOnUse">
<stop stop-color="#929290"/>
<stop offset="0.2577" stop-color="#676765"/>
<stop offset="0.5575" stop-color="#616260"/>
<stop offset="0.6263" stop-color="#6C6D6B"/>
<stop offset="0.7458" stop-color="#888987"/>
<stop offset="0.9009" stop-color="#B6B7B5"/>
<stop offset="0.9589" stop-color="#C9CAC8"/>
</linearGradient>
<radialGradient id="paint15_radial" cx="0" cy="0" r="1" gradientUnits="userSpaceOnUse" gradientTransform="translate(29.0787 74.5872) rotate(-75.7071) scale(15.6004 15.6674)">
<stop stop-color="white"/>
<stop offset="0.2577" stop-color="white"/>
<stop offset="0.3541" stop-color="white"/>
<stop offset="0.3877" stop-color="#E6E6E6"/>
<stop offset="0.4873" stop-color="#A1A1A1"/>
<stop offset="0.5816" stop-color="#686868"/>
<stop offset="0.6679" stop-color="#3B3B3B"/>
<stop offset="0.7445" stop-color="#1B1B1B"/>
<stop offset="0.8086" stop-color="#070707"/>
<stop offset="0.8523"/>
</radialGradient>
<radialGradient id="paint16_radial" cx="0" cy="0" r="1" gradientUnits="userSpaceOnUse" gradientTransform="translate(29.0787 74.5872) rotate(-75.7071) scale(15.6004 15.6674)">
<stop stop-color="#929290"/>
<stop offset="0.2577" stop-color="#676765"/>
<stop offset="0.3541" stop-color="#616260"/>
<stop offset="0.3573" stop-color="#626361"/>
<stop offset="0.5142" stop-color="#8E8F8D"/>
<stop offset="0.6545" stop-color="#AEAFAD"/>
<stop offset="0.772" stop-color="#C2C3C1"/>
<stop offset="0.8523" stop-color="#C9CAC8"/>
</radialGradient>
<linearGradient id="paint17_linear" x1="15.203" y1="57.1119" x2="47.7675" y2="65.4082" gradientUnits="userSpaceOnUse">
<stop stop-color="#929290"/>
<stop offset="0.1306" stop-color="#CBCCCA"/>
<stop offset="0.2794" stop-color="#C6C6C5"/>
<stop offset="0.294" stop-color="#C5C5C4"/>
<stop offset="0.42" stop-color="#787774"/>
<stop offset="0.5545" stop-color="#4E4B49"/>
<stop offset="0.5684" stop-color="#4A4846"/>
<stop offset="0.672" stop-color="#303334"/>
</linearGradient>
<linearGradient id="paint18_linear" x1="85.7976" y1="75.689" x2="59.6317" y2="69.0228" gradientUnits="userSpaceOnUse">
<stop stop-color="#929290"/>
<stop offset="0.1306" stop-color="#CBCCCA"/>
<stop offset="0.2168" stop-color="#C6C6C5"/>
<stop offset="0.2252" stop-color="#C5C5C4"/>
<stop offset="0.4414" stop-color="#787774"/>
<stop offset="0.5766" stop-color="#303334"/>
<stop offset="0.6397" stop-color="#323536"/>
<stop offset="0.6625" stop-color="#393B3C"/>
<stop offset="0.6787" stop-color="#444748"/>
<stop offset="0.6918" stop-color="#555858"/>
<stop offset="0.703" stop-color="#6B6D6D"/>
<stop offset="0.713" stop-color="#878888"/>
<stop offset="0.7218" stop-color="#A6A7A6"/>
<stop offset="0.7297" stop-color="#CACAC9"/>
<stop offset="0.8018" stop-color="#F8F8F8"/>
<stop offset="0.8489" stop-color="#F6F6F6"/>
<stop offset="0.8658" stop-color="#F0EFEF"/>
<stop offset="0.8779" stop-color="#E4E4E4"/>
<stop offset="0.8877" stop-color="#D4D3D3"/>
<stop offset="0.8961" stop-color="#BEBDBD"/>
<stop offset="0.9035" stop-color="#A4A2A1"/>
<stop offset="0.9102" stop-color="#848281"/>
<stop offset="0.9161" stop-color="#615E5D"/>
<stop offset="0.9189" stop-color="#4E4B49"/>
</linearGradient>
<clipPath id="clip0">
<rect width="337.052" height="250.311" fill="white" transform="translate(59.9943 24.6029) rotate(7.25093)"/>
</clipPath>
<clipPath id="clip1">
<rect width="95.7329" height="27.0016" fill="white" transform="translate(47.5774 115.351) rotate(-75.7071)"/>
</clipPath>
</defs>
</svg>
