<svg width="1440" height="1024" viewBox="0 0 1440 1024" fill="none" xmlns="http://www.w3.org/2000/svg">
<path fill-rule="evenodd" clip-rule="evenodd" d="M1440 1024.03H0V0.0253906H4.00248C4.0008 0.00842285 4 -0.00012207 4 -0.00012207H1440L1440 0.0253906H4.00248C4.20672 2.08368 17.3895 128 186 128C284.482 128 288.326 157.524 292.017 185.869C294.697 206.454 297.296 226.417 336 234C374.974 241.636 405.334 281.925 435.898 322.487C477.483 377.672 519.447 433.36 584 408C696 364 764 498.025 788 554.025C791.237 561.578 794.183 571.422 797.588 582.802C819.433 655.8 860.19 792 1118 792C1354.62 792 1342.23 850.018 1331.57 899.937C1328.8 912.888 1326.15 925.294 1328 936C1336.95 987.942 1439.87 1023.95 1440 1024L1440 1024L1440 1024.03Z" fill="#0E3057"/>
<mask id="mask0" mask-type="alpha" maskUnits="userSpaceOnUse" x="0" y="0" width="1441" height="1025">
<path fill-rule="evenodd" clip-rule="evenodd" d="M1440 1024.03H0V0.0253906H4.00248C4.0008 0.00842285 4 -0.00012207 4 -0.00012207H1440L1440 0.0253906H4.00248C4.20672 2.08368 17.3895 128 186 128C284.482 128 288.326 157.524 292.017 185.869C294.697 206.454 297.296 226.417 336 234C374.974 241.636 405.334 281.925 435.898 322.487C477.483 377.672 519.447 433.36 584 408C696 364 764 498.025 788 554.025C791.237 561.578 794.183 571.422 797.588 582.802C819.433 655.8 860.19 792 1118 792C1354.62 792 1342.23 850.018 1331.57 899.937C1328.8 912.888 1326.15 925.294 1328 936C1336.95 987.942 1439.87 1023.95 1440 1024L1440 1024L1440 1024.03Z" fill="#0E3057"/>
</mask>
<g mask="url(#mask0)">
<path d="M720.278 332.386C819.337 332.386 899.64 412.689 899.64 511.749C899.64 610.808 819.337 691.112 720.278 691.112C621.218 691.112 540.915 610.808 540.915 511.749C540.915 412.689 621.218 332.386 720.278 332.386Z" fill="#FE304F"/>
<path d="M803.726 670.336C840.43 637.787 863.976 589.657 863.976 536.333C863.976 437.303 783.643 356.97 684.613 356.97C654.488 356.97 626.441 364.242 601.51 377.4C633.02 349.353 674.917 332.04 720.624 332.04C819.654 332.04 899.987 412.372 899.987 511.402C899.64 580.655 860.859 640.558 803.726 670.336Z" fill="#CE2949"/>
<path d="M720.278 332.386C819.337 332.386 899.64 412.689 899.64 511.749C899.64 610.808 819.337 691.112 720.278 691.112C621.218 691.112 540.915 610.808 540.915 511.749C540.915 412.689 621.218 332.386 720.278 332.386Z" stroke="#CE2949" stroke-width="20.7756" stroke-miterlimit="10" stroke-linecap="round" stroke-linejoin="round"/>
<path d="M719.237 762.095V698.729" stroke="#F18A99" stroke-width="20.7756" stroke-miterlimit="10" stroke-linecap="round" stroke-linejoin="round"/>
<path d="M720.277 737.164C734.045 737.164 745.207 748.326 745.207 762.095C745.207 775.864 734.045 787.025 720.277 787.025C706.508 787.025 695.346 775.864 695.346 762.095C695.346 748.326 706.508 737.164 720.277 737.164Z" fill="#CE2949"/>
<path d="M721.662 261.402V324.768" stroke="#F18A99" stroke-width="20.7756" stroke-miterlimit="10" stroke-linecap="round" stroke-linejoin="round"/>
<path d="M720.277 236.472C734.045 236.472 745.207 247.633 745.207 261.402C745.207 275.171 734.045 286.333 720.277 286.333C706.508 286.333 695.346 275.171 695.346 261.402C695.346 247.633 706.508 236.472 720.277 236.472Z" fill="#CE2949"/>
<path d="M594.239 727.815L625.748 673.106" stroke="#F18A99" stroke-width="20.7756" stroke-miterlimit="10" stroke-linecap="round" stroke-linejoin="round"/>
<path d="M595.278 703.577C609.047 703.577 620.208 714.739 620.208 728.507C620.208 742.276 609.047 753.438 595.278 753.438C581.509 753.438 570.347 742.276 570.347 728.507C570.347 714.739 581.509 703.577 595.278 703.577Z" fill="#CE2949"/>
<path d="M846.663 295.336L814.807 350.391" stroke="#F18A99" stroke-width="20.7756" stroke-miterlimit="10" stroke-linecap="round" stroke-linejoin="round"/>
<path d="M845.625 269.712C859.394 269.712 870.556 280.874 870.556 294.643C870.556 308.412 859.394 319.574 845.625 319.574C831.856 319.574 820.694 308.412 820.694 294.643C820.694 280.874 831.856 269.712 845.625 269.712Z" fill="#CE2949"/>
<path d="M503.173 635.71L557.882 604.2" stroke="#F18A99" stroke-width="20.7756" stroke-miterlimit="10" stroke-linecap="round" stroke-linejoin="round"/>
<path d="M503.519 611.818C517.288 611.818 528.449 622.98 528.449 636.749C528.449 650.518 517.288 661.679 503.519 661.679C489.75 661.679 478.588 650.518 478.588 636.749C478.588 622.98 489.75 611.818 503.519 611.818Z" fill="#CE2949"/>
<path d="M937.728 387.441L883.019 419.297" stroke="#F18A99" stroke-width="20.7756" stroke-miterlimit="10" stroke-linecap="round" stroke-linejoin="round"/>
<path d="M937.382 361.472C951.151 361.472 962.313 372.633 962.313 386.402C962.313 400.171 951.151 411.333 937.382 411.333C923.613 411.333 912.451 400.171 912.451 386.402C912.451 372.633 923.613 361.472 937.382 361.472Z" fill="#CE2949"/>
<path d="M469.931 510.364H533.297" stroke="#F18A99" stroke-width="20.7756" stroke-miterlimit="10" stroke-linecap="round" stroke-linejoin="round"/>
<path d="M469.931 486.817C483.7 486.817 494.862 497.979 494.862 511.748C494.862 525.517 483.7 536.679 469.931 536.679C456.162 536.679 445 525.517 445 511.748C445 497.979 456.162 486.817 469.931 486.817Z" fill="#CE2949"/>
<path d="M970.969 512.787H907.257" stroke="#F18A99" stroke-width="20.7756" stroke-miterlimit="10" stroke-linecap="round" stroke-linejoin="round"/>
<path d="M970.97 486.817C984.739 486.817 995.901 497.979 995.901 511.748C995.901 525.517 984.739 536.679 970.97 536.679C957.201 536.679 946.039 525.517 946.039 511.748C946.039 497.979 957.201 486.817 970.97 486.817Z" fill="#CE2949"/>
<path d="M504.211 385.364L559.266 417.22" stroke="#F18A99" stroke-width="20.7756" stroke-miterlimit="10" stroke-linecap="round" stroke-linejoin="round"/>
<path d="M503.518 361.472C517.287 361.472 528.449 372.634 528.449 386.403C528.449 400.172 517.287 411.333 503.518 411.333C489.75 411.333 478.588 400.172 478.588 386.403C478.588 372.634 489.75 361.472 503.518 361.472Z" fill="#CE2949"/>
<path d="M936.69 637.787L881.635 606.278" stroke="#F18A99" stroke-width="20.7756" stroke-miterlimit="10" stroke-linecap="round" stroke-linejoin="round"/>
<path d="M937.382 611.818C951.151 611.818 962.313 622.98 962.313 636.749C962.313 650.518 951.151 661.679 937.382 661.679C923.613 661.679 912.451 650.518 912.451 636.749C912.451 622.98 923.613 611.818 937.382 611.818Z" fill="#CE2949"/>
<path d="M596.317 294.297L627.826 349.006" stroke="#F18A99" stroke-width="20.7756" stroke-miterlimit="10" stroke-linecap="round" stroke-linejoin="round"/>
<path d="M595.278 269.713C609.047 269.713 620.209 280.874 620.209 294.643C620.209 308.412 609.047 319.574 595.278 319.574C581.509 319.574 570.347 308.412 570.347 294.643C570.347 280.874 581.509 269.713 595.278 269.713Z" fill="#CE2949"/>
<path d="M844.585 729.2L812.729 674.145" stroke="#F18A99" stroke-width="20.7756" stroke-miterlimit="10" stroke-linecap="round" stroke-linejoin="round"/>
<path d="M845.623 703.577C859.392 703.577 870.554 714.739 870.554 728.507C870.554 742.276 859.392 753.438 845.623 753.438C831.854 753.438 820.693 742.276 820.693 728.507C820.693 714.739 831.854 703.577 845.623 703.577Z" fill="#CE2949"/>
<path d="M660.721 391.25C680.035 391.25 695.693 406.908 695.693 426.222C695.693 445.537 680.035 461.195 660.721 461.195C641.406 461.195 625.749 445.537 625.749 426.222C625.749 406.908 641.406 391.25 660.721 391.25Z" fill="#F18A99"/>
<path d="M684.613 519.02C694.175 519.02 701.926 526.771 701.926 536.333C701.926 545.895 694.175 553.646 684.613 553.646C675.051 553.646 667.3 545.895 667.3 536.333C667.3 526.771 675.051 519.02 684.613 519.02Z" fill="#F18A99"/>
<path d="M756.288 526.984C768.527 526.984 778.449 536.906 778.449 549.145C778.449 561.384 768.527 571.305 756.288 571.305C744.049 571.305 734.127 561.384 734.127 549.145C734.127 536.906 744.049 526.984 756.288 526.984Z" fill="#CE2949"/>
</g>
</svg>
