<svg width="1438" height="1024" viewBox="0 0 1438 1024" fill="none" xmlns="http://www.w3.org/2000/svg">
<path d="M332 234.03C240 216.004 352 128.03 182 128.03C12 128.03 0 0.0298462 0 0.0298462H1436V1024.03C1436 1024.03 1332.96 988.004 1324 936.03C1315.04 884.055 1412 792.03 1114 792.03C816 792.03 808 610.055 784 554.055C760 498.055 692 364.03 580 408.03C468 452.03 424 252.055 332 234.03Z" fill="#0E3057"/>
<mask id="mask0" mask-type="alpha" maskUnits="userSpaceOnUse" x="2" y="0" width="1437" height="1025">
<path d="M334 234.03C242 216.004 354 128.03 184 128.03C14 128.03 2 0.0298462 2 0.0298462H1438V1024.03C1438 1024.03 1334.96 988.004 1326 936.03C1317.04 884.055 1414 792.03 1116 792.03C818 792.03 810 610.055 786 554.055C762 498.055 694 364.03 582 408.03C470 452.03 426 252.055 334 234.03Z" fill="#0E3057"/>
</mask>
<g mask="url(#mask0)">
<path d="M718.278 332.416C817.337 332.416 897.64 412.719 897.64 511.779C897.64 610.838 817.337 691.142 718.278 691.142C619.218 691.142 538.915 610.838 538.915 511.779C538.915 412.719 619.218 332.416 718.278 332.416Z" fill="#FE304F"/>
<path d="M801.726 670.366C838.43 637.818 861.976 589.687 861.976 536.363C861.976 437.333 781.643 357 682.613 357C652.488 357 624.441 364.272 599.51 377.43C631.02 349.383 672.917 332.07 718.624 332.07C817.654 332.07 897.987 412.402 897.987 511.432C897.64 580.685 858.859 640.588 801.726 670.366Z" fill="#CE2949"/>
<path d="M718.278 332.416C817.337 332.416 897.64 412.719 897.64 511.779C897.64 610.838 817.337 691.142 718.278 691.142C619.218 691.142 538.915 610.838 538.915 511.779C538.915 412.719 619.218 332.416 718.278 332.416Z" stroke="#CE2949" stroke-width="20.7756" stroke-miterlimit="10" stroke-linecap="round" stroke-linejoin="round"/>
<path d="M717.237 762.125V698.759" stroke="#F18A99" stroke-width="20.7756" stroke-miterlimit="10" stroke-linecap="round" stroke-linejoin="round"/>
<path d="M718.277 737.194C732.045 737.194 743.207 748.356 743.207 762.125C743.207 775.894 732.045 787.055 718.277 787.055C704.508 787.055 693.346 775.894 693.346 762.125C693.346 748.356 704.508 737.194 718.277 737.194Z" fill="#CE2949"/>
<path d="M719.662 261.432V324.798" stroke="#F18A99" stroke-width="20.7756" stroke-miterlimit="10" stroke-linecap="round" stroke-linejoin="round"/>
<path d="M718.277 236.502C732.045 236.502 743.207 247.663 743.207 261.432C743.207 275.201 732.045 286.363 718.277 286.363C704.508 286.363 693.346 275.201 693.346 261.432C693.346 247.663 704.508 236.502 718.277 236.502Z" fill="#CE2949"/>
<path d="M592.239 727.845L623.748 673.136" stroke="#F18A99" stroke-width="20.7756" stroke-miterlimit="10" stroke-linecap="round" stroke-linejoin="round"/>
<path d="M593.278 703.607C607.047 703.607 618.208 714.769 618.208 728.538C618.208 742.306 607.047 753.468 593.278 753.468C579.509 753.468 568.347 742.306 568.347 728.538C568.347 714.769 579.509 703.607 593.278 703.607Z" fill="#CE2949"/>
<path d="M844.663 295.366L812.807 350.421" stroke="#F18A99" stroke-width="20.7756" stroke-miterlimit="10" stroke-linecap="round" stroke-linejoin="round"/>
<path d="M843.625 269.742C857.394 269.742 868.556 280.904 868.556 294.673C868.556 308.442 857.394 319.604 843.625 319.604C829.856 319.604 818.694 308.442 818.694 294.673C818.694 280.904 829.856 269.742 843.625 269.742Z" fill="#CE2949"/>
<path d="M501.173 635.74L555.882 604.23" stroke="#F18A99" stroke-width="20.7756" stroke-miterlimit="10" stroke-linecap="round" stroke-linejoin="round"/>
<path d="M501.519 611.848C515.288 611.848 526.449 623.01 526.449 636.779C526.449 650.548 515.288 661.709 501.519 661.709C487.75 661.709 476.588 650.548 476.588 636.779C476.588 623.01 487.75 611.848 501.519 611.848Z" fill="#CE2949"/>
<path d="M935.728 387.471L881.019 419.327" stroke="#F18A99" stroke-width="20.7756" stroke-miterlimit="10" stroke-linecap="round" stroke-linejoin="round"/>
<path d="M935.382 361.502C949.151 361.502 960.313 372.663 960.313 386.432C960.313 400.201 949.151 411.363 935.382 411.363C921.613 411.363 910.451 400.201 910.451 386.432C910.451 372.663 921.613 361.502 935.382 361.502Z" fill="#CE2949"/>
<path d="M467.931 510.394H531.297" stroke="#F18A99" stroke-width="20.7756" stroke-miterlimit="10" stroke-linecap="round" stroke-linejoin="round"/>
<path d="M467.931 486.848C481.7 486.848 492.862 498.009 492.862 511.778C492.862 525.547 481.7 536.709 467.931 536.709C454.162 536.709 443 525.547 443 511.778C443 498.009 454.162 486.848 467.931 486.848Z" fill="#CE2949"/>
<path d="M968.969 512.817H905.257" stroke="#F18A99" stroke-width="20.7756" stroke-miterlimit="10" stroke-linecap="round" stroke-linejoin="round"/>
<path d="M968.97 486.848C982.739 486.848 993.901 498.009 993.901 511.778C993.901 525.547 982.739 536.709 968.97 536.709C955.201 536.709 944.039 525.547 944.039 511.778C944.039 498.009 955.201 486.848 968.97 486.848Z" fill="#CE2949"/>
<path d="M502.211 385.394L557.266 417.25" stroke="#F18A99" stroke-width="20.7756" stroke-miterlimit="10" stroke-linecap="round" stroke-linejoin="round"/>
<path d="M501.518 361.502C515.287 361.502 526.449 372.664 526.449 386.433C526.449 400.202 515.287 411.364 501.518 411.364C487.75 411.364 476.588 400.202 476.588 386.433C476.588 372.664 487.75 361.502 501.518 361.502Z" fill="#CE2949"/>
<path d="M934.69 637.817L879.635 606.308" stroke="#F18A99" stroke-width="20.7756" stroke-miterlimit="10" stroke-linecap="round" stroke-linejoin="round"/>
<path d="M935.382 611.848C949.151 611.848 960.313 623.01 960.313 636.779C960.313 650.548 949.151 661.709 935.382 661.709C921.613 661.709 910.451 650.548 910.451 636.779C910.451 623.01 921.613 611.848 935.382 611.848Z" fill="#CE2949"/>
<path d="M594.317 294.327L625.826 349.036" stroke="#F18A99" stroke-width="20.7756" stroke-miterlimit="10" stroke-linecap="round" stroke-linejoin="round"/>
<path d="M593.278 269.743C607.047 269.743 618.209 280.904 618.209 294.673C618.209 308.442 607.047 319.604 593.278 319.604C579.509 319.604 568.347 308.442 568.347 294.673C568.347 280.904 579.509 269.743 593.278 269.743Z" fill="#CE2949"/>
<path d="M842.585 729.23L810.729 674.175" stroke="#F18A99" stroke-width="20.7756" stroke-miterlimit="10" stroke-linecap="round" stroke-linejoin="round"/>
<path d="M843.623 703.607C857.392 703.607 868.554 714.769 868.554 728.538C868.554 742.306 857.392 753.468 843.623 753.468C829.854 753.468 818.693 742.306 818.693 728.538C818.693 714.769 829.854 703.607 843.623 703.607Z" fill="#CE2949"/>
<path d="M658.721 391.28C678.035 391.28 693.693 406.938 693.693 426.252C693.693 445.567 678.035 461.225 658.721 461.225C639.406 461.225 623.749 445.567 623.749 426.252C623.749 406.938 639.406 391.28 658.721 391.28Z" fill="#F18A99"/>
<path d="M682.613 519.05C692.175 519.05 699.926 526.801 699.926 536.363C699.926 545.924 692.175 553.676 682.613 553.676C673.051 553.676 665.3 545.924 665.3 536.363C665.3 526.801 673.051 519.05 682.613 519.05Z" fill="#F18A99"/>
<path d="M754.288 527.014C766.527 527.014 776.449 536.935 776.449 549.174C776.449 561.413 766.527 571.335 754.288 571.335C742.049 571.335 732.127 561.413 732.127 549.174C732.127 536.935 742.049 527.014 754.288 527.014Z" fill="#CE2949"/>
</g>
</svg>
