<svg width="32" height="32" xmlns="http://www.w3.org/2000/svg">

 <g>
  <title>background</title>
  <rect fill="none" id="canvas_background" height="402" width="582" y="-1" x="-1"/>
 </g>
 <g>
  <title>Layer 1</title>
  <path transform="rotate(180 15.999499320983887,12.501124382019045) " id="svg_1" fill="#ffffff" d="m9.715,16.651l6.285,-6.195l6.285,6.196c0.394,0.391 1.034,0.391 1.428,0c0.394,-0.391 0.394,-1.024 0,-1.414l-6.999,-6.899c-0.379,-0.375 -1.048,-0.377 -1.429,0l-6.999,6.9c-0.394,0.39 -0.394,1.024 0,1.414c0.395,0.389 1.035,0.389 1.429,-0.002z"/>
  <path transform="rotate(180 15.999499320983885,19.500625610351562) " id="svg_2" fill="#ffffff" d="m16.714,15.338c-0.379,-0.375 -1.048,-0.377 -1.429,0l-6.999,6.899c-0.394,0.391 -0.394,1.024 0,1.414c0.394,0.391 1.034,0.391 1.428,0l6.286,-6.195l6.285,6.196c0.394,0.391 1.034,0.391 1.428,0c0.394,-0.391 0.394,-1.024 0,-1.414l-6.999,-6.9z"/>
 </g>
</svg>