<svg width="68" height="844" viewBox="0 0 68 844" fill="none" xmlns="http://www.w3.org/2000/svg">
<g clip-path="url(#clip0)" filter="url(#filter0_d)">
<path d="M43 658.387V725.389V807.5L34.0075 800.058L25 807.5V725.389V658.387L34.0075 650.945L43 658.387Z" fill="#CE2849"/>
<path d="M34.0074 733.611C31.6064 733.611 29.6528 731.646 29.6528 729.23C29.6528 726.815 31.6064 724.849 34.0074 724.849C36.4084 724.849 38.362 726.815 38.362 729.23C38.362 731.646 36.4084 733.611 34.0074 733.611Z" fill="white"/>
<path d="M43 499.147V566.149V648.26L34.0075 640.818L25 648.26V566.149V499.147L34.0075 491.705L43 499.147Z" fill="#F2C43A"/>
<path d="M34.0074 574.371C31.6064 574.371 29.6528 572.405 29.6528 569.99C29.6528 567.575 31.6064 565.609 34.0074 565.609C36.4084 565.609 38.362 567.575 38.362 569.99C38.362 572.405 36.4084 574.371 34.0074 574.371Z" fill="white"/>
<path d="M43 339.907V406.924V489.02L34.0075 481.593L25 489.02V406.924V339.907L34.0075 332.48L43 339.907Z" fill="#6F7B91"/>
<path d="M34.0074 415.131C31.6064 415.131 29.6528 413.165 29.6528 410.75C29.6528 408.335 31.6064 406.369 34.0074 406.369C36.4084 406.369 38.362 408.335 38.362 410.75C38.362 413.165 36.4084 415.131 34.0074 415.131Z" fill="white"/>
<path d="M43 180.726V247.729V329.84L34.0075 322.398L25 329.84V247.729V180.726L34.0075 173.285L43 180.726Z" fill="#118DEF"/>
<path d="M34.0074 255.891C31.6064 255.891 29.6528 253.925 29.6528 251.51C29.6528 249.094 31.6064 247.129 34.0074 247.129C36.4084 247.129 38.362 249.094 38.362 251.51C38.362 253.925 36.4084 255.891 34.0074 255.891Z" fill="white"/>
<path d="M43 21.4414V88.4441V170.555L34.0075 163.113L25 170.555V88.4441V21.4414L34.0075 14L43 21.4414Z" fill="#FF2F4F"/>
<path d="M34.0074 96.6506C31.6064 96.6506 29.6528 94.6852 29.6528 92.2698C29.6528 89.8543 31.6064 87.8889 34.0074 87.8889C36.4084 87.8889 38.362 89.8543 38.362 92.2698C38.362 94.7002 36.4084 96.6506 34.0074 96.6506Z" fill="white"/>
</g>
<defs>
<filter id="filter0_d" x="0" y="0" width="68" height="843.5" filterUnits="userSpaceOnUse" color-interpolation-filters="sRGB">
<feFlood flood-opacity="0" result="BackgroundImageFix"/>
<feColorMatrix in="SourceAlpha" type="matrix" values="0 0 0 0 0 0 0 0 0 0 0 0 0 0 0 0 0 0 127 0"/>
<feOffset dy="11"/>
<feGaussianBlur stdDeviation="12.5"/>
<feColorMatrix type="matrix" values="0 0 0 0 0 0 0 0 0 0 0 0 0 0 0 0 0 0 0.37 0"/>
<feBlend mode="normal" in2="BackgroundImageFix" result="effect1_dropShadow"/>
<feBlend mode="normal" in="SourceGraphic" in2="effect1_dropShadow" result="shape"/>
</filter>
<clipPath id="clip0">
<rect width="18" height="793.5" fill="white" transform="translate(25 14)"/>
</clipPath>
</defs>
</svg>
